# AST/ASF file generated using VICON BodyLanguage
# -----------------------------------------------
:version 1.10
:name VICON
:units
  mass 1.0
  length 0.45
  angle deg
:documentation
   .ast/.asf automatically generated from VICON data using
   VICON BodyBuilder and BodyLanguage model FoxedUp or BRILLIANT.MOD
:root
   order TX TY TZ RX RY RZ
   axis XYZ
   position 0 0 0  
   orientation 0 0 0 
:bonedata
  begin
     id 1 
     name lhipjoint
     direction 0.535335 -0.74333 0.401095 
     length 2.04549 
     axis 0 0 0  XYZ
  end
  begin
     id 2 
     name lfemur
     direction 0.34202 -0.939693 0  
     length 6.95643  
     axis 0 0 20  XYZ
    dof rx ry rz
    limits (-160.0 20.0)
           (-70.0 70.0)
           (-60.0 70.0)
  end
  begin
     id 3 
     name ltibia
     direction 0.34192 -0.939729 0   
     length 5.55969   
     axis 0 0 20   XYZ
    dof rx
    limits (-10.0 170.0)
  end
  begin
     id 4 
     name lfoot
     direction 0.216943 -0.596046 0.773088   
     length 2.27918   
     axis -90 7.62852e-016 20   XYZ
    dof rx rz
    limits (-45.0 90.0)
           (-70.0 20.0)
  end
  begin
     id 5 
     name ltoes
     direction 1.53519e-011 -4.21748e-011 1   
     length 1.05562   
     axis -90 7.62852e-016 20   XYZ
    dof rx
    limits (-90.0 20.0)
  end
  begin
     id 6 
     name rhipjoint
     direction -0.576368 -0.719173 0.38806   
     length 2.1142  
     axis 0 0 0  XYZ 
  end
  begin
     id 7 
     name rfemur
     direction -0.34202 -0.939693 0   
     length 7.07928   
     axis 0 0 -20   XYZ
    dof rx ry rz
    limits (-160.0 20.0)
           (-70.0 70.0)
           (-70.0 60.0)
  end
  begin
     id 8 
     name rtibia
     direction -0.34202 -0.939693 0   
     length 5.79974   
     axis 0 0 -20   XYZ
    dof rx
    limits (-10.0 170.0)
 end
 begin
     id 9 
     name rfoot
     direction -0.189288 -0.520065 0.832888   
     length 2.42173  
     axis -90 -7.62852e-016 -20   XYZ
    dof rx rz
    limits (-45.0 90.0)
           (-20.0 70.0)
  end
  begin
     id 10 
     name rtoes
     direction -1.53574e-011 -4.21658e-011 1   
     length 1.14469   
     axis -90 -7.62852e-016 -20   XYZ
    dof rx
    limits (-90.0 20.0)
  end
  begin
     id 11 
     name lowerback
     direction -0.00135702 0.993803 0.111144   
     length 1.91308   
     axis 0 0 0   XYZ
    dof rx ry rz
    limits (-20.0 45.0)
           (-30.0 30.0)
           (-30.0 30.0)
  end
  begin
     id 12 
     name upperback
     direction -0.0056745 0.999813 0.0184631   
     length 1.9212   
     axis 0 0 0   XYZ
    dof rx ry rz
    limits (-20.0 45.0)
           (-30.0 30.0)
           (-30.0 30.0)
  end
  begin
     id 13 
     name thorax
     direction -0.00733434 0.999426 -0.0330788   
     length 1.94196   
     axis 0 0 0   XYZ
    dof rx ry rz
    limits (-20.0 45.0)
           (-30.0 30.0)
           (-30.0 30.0)
  end
  begin
     id 14 
     name lowerneck
     direction 0.0563074 0.996944 -0.0541571   
     length 2.34257   
     axis 0 0 0   XYZ
    dof rx ry rz
    limits (-20.0 45.0)
           (-30.0 30.0)
           (-30.0 30.0)
  end
  begin
     id 15 
     name upperneck
     direction -0.0544519 0.976166 -0.210085   
     length 2.32506   
     axis 0 0 0   XYZ
    dof rx ry rz
    limits (-20.0 45.0)
           (-30.0 30.0)
           (-30.0 30.0)
  end
  begin
     id 16
     name head
     direction -0.0226035 0.997615 -0.0652205  
     length 2.3648  
     axis 0 0 0   XYZ
    dof rx ry rz
    limits (-20.0 45.0)
           (-30.0 30.0)
           (-30.0 30.0)
  end
  begin
     id 17 
     name lclavicle
     direction 0.92109 0.381297 -0.0787716  
     length 4.0487  
     axis 0 0 0   XYZ
    dof ry rz
    limits (-20.0 10.0)
           (0.0 20.0)
  end
  begin
     id 18 
     name lhumerus
     direction 1 -4.48986e-011 3.56724e-027   
     length 4.94991   
     axis 180 -30 -90   XYZ
    dof rx ry rz
    limits (-60.0 90.0)
           (-90.0 90.0)
           (-90.0 90.0)
  end
  begin
     id 19
     name lradius
     direction 1 -4.48981e-011 8.62147e-027   
     length 2.7606   
     axis 180 -30 -90   XYZ
    dof rx
    limits (-10.0 170.0)
  end
  begin
     id 20
     name lwrist
     direction 1 -4.48989e-011 1.59799e-026   
     length 1.3803   
     axis -1.17785e-014 90 90   XYZ
    dof ry
    limits (-180.0 0.0)
 end
  begin
     id 21 
     name lhand
     direction 1 -4.48896e-011 3.19599e-026   
     length 0.843936   
     axis -2.03931e-014 90 90   XYZ
    dof rx rz
    limits (-90.0 90.0)
           (-45.0 45.0)
  end
  begin
     id 22 
     name lfingers
     direction 1 -4.48887e-011 6.39197e-026   
     length 0.680403   
     axis -4.07862e-014 90 90   XYZ
    dof rx
    limits (0.0 90.0)
  end
  begin
     id 23
     name lthumb
     direction 0.707107 -6.348e-011 0.707107   
     length 0.976926   
     axis -90 45 2.85299e-015   XYZ
    dof rx rz
    limits (-45.0 45.0)
           (-45.0 45.0)
  end
  begin
     id 24 
     name rclavicle
     direction -0.951104 0.307692 -0.026953   
     length 4.21801  
     axis 0 0 0   XYZ 
    dof ry rz
    limits (-10.0 20.0)
           (-20.0 0.0)
  end
  begin
     id 25 
     name rhumerus
     direction -1 -4.4896e-011 -1.8171e-018  
     length 4.32982   
     axis 180 30 90   XYZ
    dof rx ry rz
    limits (-90.0 60.0)
           (-90.0 90.0)
           (-90.0 90.0)
  end
  begin
     id 26 
     name rradius
     direction -1 -4.48959e-011 8.25165e-027   
     length 3.20057   
     axis 180 30 90   XYZ
    dof rx
    limits (-10.0 170.0)
  end
  begin
     id 27 
     name rwrist
     direction -1 -4.48997e-011 1.59799e-026   
     length 1.60029   
     axis -1.17785e-014 -90 -90   XYZ
    dof ry
    limits (-180.0 0.0)
  end
  begin
     id 28
     name rhand
     direction -1 -4.49023e-011 3.19599e-026   
     length 0.960433   
     axis -2.03931e-014 -90 -90   XYZ
    dof rx rz
    limits (-90.0 90.0)
           (-45.0 45.0)
  end
  begin
     id 29
     name rfingers
     direction -1 -4.48802e-011 6.39197e-026   
     length 0.774326   
     axis -4.07862e-014 -90 -90   XYZ
    dof rx
    limits (0.0 90.0)
  end
  begin
     id 30
     name rthumb
     direction -0.707107 -6.34876e-011 0.707107   
     length 1.11178   
     axis -90 -45 -2.85299e-015   XYZ
    dof rx rz
    limits (-45.0 45.0)
           (-45.0 45.0)
  end
:hierarchy
  begin
    root lhipjoint rhipjoint lowerback
    lhipjoint lfemur
    lfemur ltibia
    ltibia lfoot
    lfoot ltoes
    rhipjoint rfemur
    rfemur rtibia
    rtibia rfoot
    rfoot rtoes
    lowerback upperback
    upperback thorax
    thorax lowerneck lclavicle rclavicle
    lowerneck upperneck
    upperneck head
    lclavicle lhumerus
    lhumerus lradius
    lradius lwrist
    lwrist lhand lthumb
    lhand lfingers
    rclavicle rhumerus
    rhumerus rradius
    rradius rwrist
    rwrist rhand rthumb
    rhand rfingers
end

#!OML:ASF C:\KaitlinTest1\Natural Motions\Nikki\Session 2\Nikki.ASF
:FULLY-SPECIFIED
:DEGREES
118
root -18.8469 16.6252 5.01578 -153.312 85.796 -163.227
lowerback -13.2063 -1.64196 0.0900996
upperback -4.01611 -1.98466 -0.500279
thorax 3.15724 -0.909309 -0.878097
lowerneck -1.85234 1.64861 8.4885
upperneck 27.1754 3.92849 -5.6647
head 9.04541 2.56841 -3.02782
rclavicle 1.57288e-014 0
rhumerus -42.0101 -21.8382 -79.2393
rradius 18.3561
rwrist 28.845
rhand -35.886 2.9931
rfingers 7.12502
rthumb -8.99977 -26.7949
lclavicle 1.57288e-014 0
lhumerus -42.125 16.0085 80.4965
lradius 24.0277
lwrist -40.4935
lhand -32.7082 3.47681
lfingers 7.12502
lthumb -5.93247 33.3738
rfemur -7.41831 -16.2357 20.9021
rtibia 10.8766
rfoot -10.6079 11.4585
rtoes 3.65764e-014
lfemur -9.83524 12.0427 -17.9113
ltibia 9.90733
lfoot -2.3762 -16.7299
ltoes 3.02153e-014
119
root -18.8497 16.6269 5.01679 -154.033 85.7864 -163.975
lowerback -13.1348 -1.67123 0.0128251
upperback -4.07152 -2.01186 -0.496808
thorax 3.063 -0.922471 -0.832008
lowerneck -1.78033 1.65307 8.46032
upperneck 27.1653 3.94089 -5.64318
head 9.02857 2.57559 -3.01487
rclavicle -1.63003e-014 -7.55382e-015
rhumerus -42.0543 -21.7272 -79.2709
rradius 18.3811
rwrist 28.7357
rhand -35.8484 2.82304
rfingers 7.12502
rthumb -8.96356 -26.9665
lclavicle -1.63003e-014 -7.55382e-015
lhumerus -42.2208 16.191 80.3449
lradius 23.9733
lwrist -41.0069
lhand -32.758 3.45322
lfingers 7.12502
lthumb -5.98054 33.3488
rfemur -7.45718 -16.2235 20.8658
rtibia 10.8847
rfoot -10.5913 11.4105
rtoes -1.90833e-014
lfemur -9.87513 12.0063 -17.9598
ltibia 9.90044
lfoot -2.35372 -16.7279
ltoes 3.49861e-014
120
root -18.85 16.6274 5.01689 -153.721 85.7723 -163.664
lowerback -13.1801 -1.66195 0.0448625
upperback -4.03334 -2.00474 -0.499256
thorax 3.12635 -0.919183 -0.853578
lowerneck -1.83036 1.65047 8.43044
upperneck 27.1578 3.92243 -5.60276
head 9.03258 2.56558 -2.99668
rclavicle 1.37907e-014 -3.97569e-015
rhumerus -42.0041 -21.8605 -79.2404
rradius 18.3401
rwrist 28.7896
rhand -35.8512 2.80172
rfingers 7.12502
rthumb -8.96622 -26.9878
lclavicle 1.37907e-014 -3.97569e-015
lhumerus -42.1507 16.1904 80.3701
lradius 23.9842
lwrist -40.9014
lhand -32.77 3.43766
lfingers 7.12502
lthumb -5.99213 33.3329
rfemur -7.45532 -16.2642 20.8981
rtibia 10.8781
rfoot -10.5967 11.4438
rtoes -2.38542e-014
lfemur -9.8818 11.9992 -17.9319
ltibia 9.90707
lfoot -2.33415 -16.737
ltoes -2.38542e-014
121
root -18.8484 16.6276 5.01597 -153.565 85.782 -163.519
lowerback -13.1989 -1.64917 0.0635757
upperback -4.05198 -1.98939 -0.493181
thorax 3.11681 -0.911144 -0.855595
lowerneck -1.80581 1.63103 8.37636
upperneck 27.1791 3.89975 -5.57507
head 9.03201 2.55404 -2.97999
rclavicle -2.37299e-014 -3.57812e-015
rhumerus -42.0732 -21.9095 -79.1639
rradius 18.357
rwrist 28.8817
rhand -35.8306 2.77004
rfingers 7.12502
rthumb -8.94631 -27.0203
lclavicle -2.37299e-014 -3.57812e-015
lhumerus -42.1709 16.1261 80.421
lradius 23.9771
lwrist -40.7951
lhand -32.8187 3.42834
lfingers 7.12502
lthumb -6.03922 33.3223
rfemur -7.46553 -16.2746 20.9046
rtibia 10.8851
rfoot -10.5975 11.4609
rtoes -5.725e-014
lfemur -9.87502 12.0081 -17.9301
ltibia 9.87904
lfoot -2.32886 -16.7324
ltoes -7.31528e-014
122
root -18.8487 16.6277 5.01639 -153.491 85.7699 -163.444
lowerback -13.1975 -1.65844 0.0693131
upperback -4.04186 -2.00274 -0.496399
thorax 3.12616 -0.917932 -0.864406
lowerneck -1.80448 1.63832 8.39261
upperneck 27.1593 3.90983 -5.59062
head 9.02616 2.55804 -2.98722
rclavicle -1.25234e-014 -5.1684e-015
rhumerus -42.0507 -21.8429 -79.234
rradius 18.3362
rwrist 28.7666
rhand -35.9353 2.85318
rfingers 7.12502
rthumb -9.04736 -26.9328
lclavicle -1.25234e-014 -5.1684e-015
lhumerus -42.1658 16.1948 80.3657
lradius 23.9558
lwrist -40.8976
lhand -32.8149 3.43526
lfingers 7.12502
lthumb -6.03553 33.3293
rfemur -7.44487 -16.2428 20.9163
rtibia 10.8413
rfoot -10.565 11.4286
rtoes 5.48646e-014
lfemur -9.88784 11.9954 -17.9167
ltibia 9.91074
lfoot -2.3489 -16.7279
ltoes 9.54166e-015
123
root -18.849 16.627 5.01652 -153.896 85.798 -163.843
lowerback -13.1925 -1.65511 0.0300643
upperback -4.02563 -1.99308 -0.518621
thorax 3.14114 -0.913438 -0.864132
lowerneck -1.86567 1.632 8.42064
upperneck 27.1899 3.89458 -5.59641
head 9.04784 2.55209 -2.99517
rclavicle 1.43622e-014 -3.97569e-015
rhumerus -42.0173 -21.8709 -79.2573
rradius 18.3112
rwrist 28.7851
rhand -35.9167 2.81917
rfingers 7.12502
rthumb -9.02942 -26.9676
lclavicle 1.43622e-014 -3.97569e-015
lhumerus -42.1083 16.1336 80.3773
lradius 23.9473
lwrist -40.8752
lhand -32.7844 3.40862
lfingers 7.12502
lthumb -6.00605 33.3035
rfemur -7.42625 -16.2222 20.8709
rtibia 10.8131
rfoot -10.5386 11.4252
rtoes 6.2816e-014
lfemur -9.89033 12.0017 -17.9581
ltibia 9.93941
lfoot -2.38704 -16.6989
ltoes -7.95139e-015
124
root -18.8484 16.6281 5.01615 -153.542 85.7911 -163.503
lowerback -13.232 -1.65126 0.0648946
upperback -4.01355 -1.99251 -0.518504
thorax 3.17396 -0.913033 -0.884935
lowerneck -1.89837 1.63571 8.42182
upperneck 27.2082 3.89518 -5.58726
head 9.06042 2.55285 -2.99201
rclavicle 7.52897e-015 -2.38542e-015
rhumerus -41.9886 -21.928 -79.2556
rradius 18.3024
rwrist 28.8077
rhand -35.8681 2.80248
rfingers 7.12502
rthumb -8.9825 -26.9863
lclavicle 7.52897e-015 -2.38542e-015
lhumerus -41.9444 14.9531 81.1532
lradius 23.9617
lwrist -39.3438
lhand -33.0742 3.66678
lfingers 7.12502
lthumb -6.28589 33.5535
rfemur -7.43527 -16.2395 20.9018
rtibia 10.7995
rfoot -10.5299 11.4446
rtoes 7.15625e-014
lfemur -9.92278 12.0023 -17.9361
ltibia 9.95512
lfoot -2.36092 -16.7124
ltoes 6.67916e-014
125
root -18.8489 16.6273 5.01615 -153.257 85.7789 -163.216
lowerback -13.2028 -1.65329 0.0798919
upperback -4.03477 -1.99748 -0.499208
thorax 3.13606 -0.915402 -0.872764
lowerneck -1.85237 1.6251 8.38545
upperneck 27.2007 3.8917 -5.59627
head 9.04807 2.54821 -2.98949
rclavicle -2.70844e-015 -3.57812e-015
rhumerus -42.0342 -21.7965 -79.2871
rradius 18.3598
rwrist 28.7496
rhand -35.8155 2.7374
rfingers 7.12502
rthumb -8.93173 -27.0535
lclavicle -2.70844e-015 -3.57812e-015
lhumerus -42.1637 16.1494 80.3907
lradius 23.9815
lwrist -40.8893
lhand -32.8685 3.41386
lfingers 7.12502
lthumb -6.08722 33.3064
rfemur -7.42643 -16.2513 20.9313
rtibia 10.7745
rfoot -10.5407 11.4584
rtoes 2.94201e-014
lfemur -9.94395 11.9968 -17.907
ltibia 9.99825
lfoot -2.39683 -16.704
ltoes 7.95139e-014
